<svg id="frame_1" xmlns="http://www.w3.org/2000/svg" xmlns:xlink="http://www.w3.org/1999/xlink" width="233.426" height="64.154" viewBox="0 0 233.426 64.154">
  <defs>
    <linearGradient id="linear-gradient" x1="-0.018" y1="0.5" x2="0.983" y2="0.5" gradientUnits="objectBoundingBox">
      <stop offset="0" stop-color="#dea752"/>
      <stop offset="0.144" stop-color="#fdcf3e"/>
      <stop offset="0.269" stop-color="#fddc8b"/>
      <stop offset="0.413" stop-color="#fdcf3e"/>
      <stop offset="0.532" stop-color="#f2b64d"/>
      <stop offset="0.646" stop-color="#fddc8b"/>
      <stop offset="0.77" stop-color="#fdcf3e"/>
      <stop offset="0.87" stop-color="#dea752"/>
      <stop offset="1" stop-color="#fdcf3e"/>
    </linearGradient>
    <linearGradient id="linear-gradient-2" x1="0.792" y1="0.018" x2="-0.26" y2="0.99" xlink:href="#linear-gradient"/>
    <linearGradient id="linear-gradient-3" x1="0.082" y1="-0.08" x2="1.403" y2="1.101" xlink:href="#linear-gradient"/>
    <linearGradient id="linear-gradient-4" x1="1.004" y1="-0.021" x2="-0.016" y2="1.129" xlink:href="#linear-gradient"/>
    <linearGradient id="linear-gradient-5" x1="-0.086" y1="0.002" x2="1.113" y2="1.182" xlink:href="#linear-gradient"/>
    <linearGradient id="linear-gradient-6" x1="0.613" y1="0.016" x2="0.455" y2="1.122" xlink:href="#linear-gradient"/>
  </defs>
  <path id="Path_6468" data-name="Path 6468" d="M511.994,1625.517a3.951,3.951,0,0,1-2.571,1.273c-2.845.395-3.324-.948-7.029-1.431a28.269,28.269,0,0,0-8.392.409c.748-.028,1.511-.028,2.292.014a17.761,17.761,0,0,1,8.7,2.589,14.4,14.4,0,0,1,5.932,6.886c2.027,5.211.135,10.391-3.394,12.469a7.219,7.219,0,0,1-5.807.707,5.035,5.035,0,0,1-3.394-3.235,3.186,3.186,0,0,1,.488-3.143,2.61,2.61,0,0,1,2.72-.7c1.446.958,3.468-1.208,2.952-4.03a8.374,8.374,0,0,0-2.729-4.534,13.2,13.2,0,0,0-6.025-3.04c-2.515-.623-6.476.014-9.321-.265H305.254c-2.845.274-6.8-.358-9.321.265a13.242,13.242,0,0,0-6.025,3.04,8.376,8.376,0,0,0-2.729,4.534c-.516,2.817,1.506,4.988,2.952,4.03a2.61,2.61,0,0,1,2.72.7,3.165,3.165,0,0,1,.488,3.143,5.026,5.026,0,0,1-3.394,3.235,7.219,7.219,0,0,1-5.807-.707c-3.533-2.078-5.421-7.253-3.394-12.469a14.422,14.422,0,0,1,5.932-6.886,17.776,17.776,0,0,1,8.7-2.589c.776-.042,1.539-.038,2.292-.014a28.268,28.268,0,0,0-8.392-.409c-3.705.483-4.18,1.826-7.029,1.431a3.972,3.972,0,0,1-2.571-1.273,2.751,2.751,0,0,1-.233-2.976c1.511-3.324,6.374-3.729,9.917-3.259a30.069,30.069,0,0,1,8.8,2.714,28.881,28.881,0,0,0-5.616-3.635,32.645,32.645,0,0,0-3.654-1.338,4.382,4.382,0,0,1-2.766-4.454c.274-1.78,2.353-3.3,5.384-2.255a18.2,18.2,0,0,1,4.5,3.059,32.04,32.04,0,0,1,5.416,6.7c.948,1.493,1.962,3.822,3.5,5.546a1.422,1.422,0,0,1,.2-.019H486.536c.07,0,.135.014.2.019,1.534-1.725,2.548-4.054,3.5-5.546a31.922,31.922,0,0,1,5.416-6.7,18.11,18.11,0,0,1,4.5-3.059c3.026-1.037,5.109.479,5.384,2.255a4.382,4.382,0,0,1-2.766,4.454,33.74,33.74,0,0,0-3.654,1.338,28.742,28.742,0,0,0-5.611,3.635,30.066,30.066,0,0,1,8.8-2.714c3.542-.47,8.405-.066,9.917,3.259A2.742,2.742,0,0,1,511.994,1625.517Z" transform="translate(-279.123 -1609.974)" fill="url(#linear-gradient)"/>
  <path id="Path_6469" data-name="Path 6469" d="M467.414,1606.708c6.839-1.381,8.8,6.234,4.719,7.912-1.888.74-2.511-.6-2.906-1.181-.614-.255-2.129.506-1.622,2.7.316,1.376,1.525,2.692,4.17,2.111,2.957-.693,5.616-2.753,8.494-4.784,2.836-2.019,5.839-3.966,9.224-4.4a10.744,10.744,0,0,1,1.567-.112,10.973,10.973,0,0,0-1.5.4c-3.115,1.032-5.537,3.38-7.852,5.788-2.71,2.794-5.082,5.487-8.619,7.039-6.853,2.9-12.7-2.855-11.525-9.386A7.453,7.453,0,0,1,467.414,1606.708Z" transform="translate(-376.666 -1582.582)" fill="url(#linear-gradient-2)"/>
  <path id="Path_6470" data-name="Path 6470" d="M544.529,1615.119c-2.315-2.408-4.737-4.755-7.852-5.788a10.946,10.946,0,0,0-1.5-.4,10.766,10.766,0,0,1,1.567.112c3.38.432,6.388,2.385,9.224,4.4,2.873,2.032,5.532,4.091,8.489,4.784,2.641.581,3.849-.735,4.17-2.111.507-2.195-1.009-2.957-1.623-2.7-.395.577-1.018,1.92-2.906,1.181-4.082-1.679-2.12-9.293,4.719-7.913a7.464,7.464,0,0,1,5.853,6.095c1.176,6.532-4.668,12.283-11.525,9.386C549.611,1620.6,547.244,1617.909,544.529,1615.119Z" transform="translate(-416.137 -1582.547)" fill="url(#linear-gradient-3)"/>
  <path id="Path_6471" data-name="Path 6471" d="M486.378,1588.408c6.8-4.928,8.531-12.882,14.607-15.751-5.421,4.952-4.923,18.9-14.645,24.524-4.31,2.46-7.969-.348-6.1-4.053C481.245,1591.039,482.612,1590.937,486.378,1588.408Z" transform="translate(-386.471 -1541.98)" fill="url(#linear-gradient-4)"/>
  <path id="Path_6472" data-name="Path 6472" d="M549.533,1588.412c3.766,2.534,5.128,2.631,6.146,4.719,1.864,3.706-1.794,6.509-6.1,4.054-9.721-5.62-9.224-19.573-14.645-24.524C541,1575.529,542.731,1583.479,549.533,1588.412Z" transform="translate(-416.003 -1541.984)" fill="url(#linear-gradient-5)"/>
  <path id="Path_6473" data-name="Path 6473" d="M526.019,1587.348c-6.267,0-3.124-11.6,0-31.958C529.138,1575.745,532.286,1587.344,526.019,1587.348Z" transform="translate(-409.301 -1523.193)" fill="url(#linear-gradient-6)"/>
</svg>
