<svg id="frame_black" xmlns="http://www.w3.org/2000/svg" width="240.628" height="66.134" viewBox="0 0 240.628 66.134">
  <path id="Path_6468" data-name="Path 6468" d="M519.179,1633.924a4.071,4.071,0,0,0-2.65-1.313c-2.933-.407-3.427.978-7.246,1.476a29.154,29.154,0,0,1-8.651-.421c.772.029,1.558.029,2.363-.014a18.309,18.309,0,0,0,8.972-2.669,14.843,14.843,0,0,0,6.115-7.1c2.09-5.372.139-10.711-3.5-12.854a7.44,7.44,0,0,0-5.986-.729,5.19,5.19,0,0,0-3.5,3.335,3.283,3.283,0,0,0,.5,3.24c.633.671,2.051,1.184,2.8.723,1.491-.987,3.575,1.246,3.043,4.155a8.635,8.635,0,0,1-2.813,4.673,13.6,13.6,0,0,1-6.211,3.134c-2.593.643-6.676-.014-9.609.273H306.06c-2.933-.283-7.011.37-9.609-.273a13.645,13.645,0,0,1-6.211-3.134,8.635,8.635,0,0,1-2.813-4.673c-.532-2.9,1.553-5.142,3.043-4.155.752.46,2.171-.052,2.8-.723a3.263,3.263,0,0,0,.5-3.24,5.18,5.18,0,0,0-3.5-3.335,7.44,7.44,0,0,0-5.986.729c-3.642,2.142-5.588,7.476-3.5,12.854a14.863,14.863,0,0,0,6.115,7.1,18.324,18.324,0,0,0,8.972,2.669c.8.043,1.586.039,2.363.014a29.154,29.154,0,0,1-8.651.421c-3.82-.5-4.308-1.882-7.246-1.476a4.093,4.093,0,0,0-2.65,1.313,2.835,2.835,0,0,0-.24,3.067c1.558,3.427,6.571,3.844,10.222,3.359a31.008,31.008,0,0,0,9.072-2.8,29.755,29.755,0,0,1-5.789,3.748,33.785,33.785,0,0,1-3.767,1.38,4.517,4.517,0,0,0-2.852,4.591c.283,1.835,2.425,3.4,5.55,2.324a18.758,18.758,0,0,0,4.644-3.153,33.049,33.049,0,0,0,5.583-6.9c.978-1.539,2.022-3.94,3.6-5.718a1.472,1.472,0,0,0,.206.02h187c.072,0,.139-.015.206-.02,1.582,1.778,2.626,4.179,3.6,5.718a32.915,32.915,0,0,0,5.583,6.9,18.671,18.671,0,0,0,4.644,3.153c3.12,1.069,5.267-.494,5.55-2.324a4.517,4.517,0,0,0-2.852-4.591,34.779,34.779,0,0,1-3.767-1.38,29.644,29.644,0,0,1-5.785-3.748,31.006,31.006,0,0,0,9.072,2.8c3.652.485,8.665.067,10.223-3.359A2.826,2.826,0,0,0,519.179,1633.924Z" transform="translate(-279.123 -1583.813)"/>
  <path id="Path_6469" data-name="Path 6469" d="M467.6,1623.29c7.05,1.423,9.072-6.426,4.864-8.156-1.946-.762-2.588.623-3,1.217-.632.263-2.195-.522-1.672-2.785.326-1.419,1.572-2.775,4.3-2.176,3.048.714,5.789,2.837,8.756,4.931,2.923,2.081,6.019,4.089,9.508,4.539a11.078,11.078,0,0,0,1.615.116,11.272,11.272,0,0,1-1.543-.417c-3.211-1.063-5.708-3.484-8.094-5.966-2.794-2.88-5.238-5.656-8.885-7.256-7.064-2.99-13.093,2.943-11.881,9.676A7.682,7.682,0,0,0,467.6,1623.29Z" transform="translate(-374.051 -1582.026)"/>
  <path id="Path_6470" data-name="Path 6470" d="M544.818,1614.569c-2.386,2.482-4.883,4.9-8.094,5.967a11.253,11.253,0,0,1-1.543.417,11.021,11.021,0,0,0,1.615-.115c3.484-.446,6.585-2.458,9.509-4.539,2.961-2.094,5.7-4.217,8.751-4.932,2.722-.6,3.968.757,4.3,2.176.522,2.263-1.04,3.049-1.673,2.785-.407-.595-1.049-1.979-3-1.218-4.208,1.73-2.185,9.58,4.865,8.157a7.694,7.694,0,0,0,6.034-6.283c1.213-6.733-4.812-12.662-11.881-9.676C550.056,1608.918,547.616,1611.693,544.818,1614.569Z" transform="translate(-412.464 -1582.012)"/>
  <path id="Path_6471" data-name="Path 6471" d="M486.582,1582.655c7.012,5.08,8.794,13.28,15.058,16.237-5.588-5.1-5.075-19.486-15.1-25.28-4.443-2.536-8.214.359-6.292,4.178C481.292,1579.942,482.7,1580.047,486.582,1582.655Z" transform="translate(-383.593 -1564.381)"/>
  <path id="Path_6472" data-name="Path 6472" d="M549.984,1582.658c3.882-2.612,5.286-2.713,6.335-4.865,1.922-3.82-1.85-6.709-6.292-4.179-10.021,5.794-9.509,20.177-15.1,25.28C541.189,1595.938,542.972,1587.742,549.984,1582.658Z" transform="translate(-412.334 -1564.383)"/>
  <path id="Path_6473" data-name="Path 6473" d="M526.13,1555.39c-6.46,0-3.221,11.961,0,32.944C529.346,1567.351,532.591,1555.395,526.13,1555.39Z" transform="translate(-405.811 -1555.39)"/>
</svg>
